<svg width="512" height="512" viewBox="0 0 512 512" fill="none" xmlns="http://www.w3.org/2000/svg">
<rect width="512" height="512" fill="#1E3A8A"/>
<path d="M337.768 114.452H192.702V335.345H276.66L267.147 304.058C266.118 300.739 265.89 297.223 266.48 293.799C267.071 290.374 268.463 287.138 270.544 284.354C272.613 281.566 275.303 279.298 278.401 277.731C281.499 276.163 284.92 275.339 288.392 275.324C290.591 275.324 292.782 275.648 294.907 276.298L366.809 298.165V143.493C366.804 135.792 363.743 128.408 358.297 122.963C352.852 117.518 345.468 114.457 337.768 114.452ZM301.45 227.237H261.318C259.103 227.237 256.978 226.357 255.412 224.791C253.845 223.224 252.965 221.1 252.965 218.884C252.965 216.669 253.845 214.544 255.412 212.978C256.978 211.411 259.103 210.531 261.318 210.531H301.45C303.666 210.531 305.79 211.411 307.357 212.978C308.923 214.544 309.803 216.669 309.803 218.884C309.803 221.1 308.923 223.224 307.357 224.791C305.79 226.357 303.666 227.237 301.45 227.237ZM322.806 192.47H239.962C237.747 192.47 235.622 191.59 234.055 190.023C232.489 188.457 231.609 186.332 231.609 184.117C231.609 181.901 232.489 179.777 234.055 178.21C235.622 176.644 237.747 175.764 239.962 175.764H322.806C325.022 175.764 327.146 176.644 328.713 178.21C330.279 179.777 331.16 181.901 331.16 184.117C331.16 186.332 330.279 188.457 328.713 190.023C327.146 191.59 325.022 192.47 322.806 192.47Z" fill="#EEF2FF"/>
<path d="M291.491 384.081L288.521 374.327H163.095C137.942 374.327 137.887 335.345 163.095 335.345H178.78V114.452H163.095C143.14 114.452 126.898 130.694 126.898 150.649V354.335C126.898 354.483 126.851 354.632 126.851 354.78C126.864 364.389 130.686 373.6 137.48 380.395C144.275 387.189 153.486 391.011 163.095 391.024H295.055C293.471 388.935 292.265 386.586 291.491 384.081ZM280.465 300.002L304.81 380.025C307.168 387.775 318.082 387.942 320.672 380.257L332.069 346.436C332.48 345.22 333.166 344.115 334.074 343.207C334.982 342.299 336.087 341.613 337.304 341.202L371.125 329.804C378.8 327.215 378.642 316.3 370.893 313.943L290.87 289.598C289.424 289.164 287.888 289.129 286.425 289.497C284.962 289.866 283.625 290.624 282.558 291.691C281.491 292.758 280.733 294.094 280.365 295.558C279.996 297.021 280.031 298.557 280.465 300.002Z" fill="#EEF2FF"/>
</svg>
