<svg xmlns="http://www.w3.org/2000/svg" version="1.1" xmlns:xlink="http://www.w3.org/1999/xlink" xmlns:svgjs="http://svgjs.com/svgjs" width="512" height="512" x="0" y="0" viewBox="0 0 512 512" style="enable-background:new 0 0 512 512" xml:space="preserve" class=""><g><path fill="#FFEA4A" fill-rule="evenodd" d="M255.986.014C396.805.014 512 115.209 512 256S396.805 511.986 255.986 511.986C115.2 511.986 0 396.791 0 256S115.2.014 255.986.014z" data-original="#ffea4a"></path><path fill="#3D5966" fill-rule="evenodd" d="M164.431 64.1h139.175a33.31 33.31 0 0 1 33.249 33.221v273.25a33.316 33.316 0 0 1-33.249 33.249H164.431a33.316 33.316 0 0 1-33.249-33.249V97.324A33.31 33.31 0 0 1 164.431 64.1z" data-original="#3d5966"></path><path fill="#EAF6FF" fill-rule="evenodd" d="M164.431 75.441h139.175a21.95 21.95 0 0 1 21.882 21.883v273.247a21.932 21.932 0 0 1-21.882 21.883H164.431a21.933 21.933 0 0 1-21.883-21.883V97.324a21.951 21.951 0 0 1 21.883-21.883z" data-original="#eaf6ff"></path><path fill="#D3DDE6" d="M166.188 279.838a5.244 5.244 0 0 1 0-10.488h81.72a5.244 5.244 0 0 1 0 10.488zm0 53.6a5.244 5.244 0 0 1 0-10.488h40.874a5.244 5.244 0 0 1 0 10.488zm0-26.786a5.258 5.258 0 0 1 0-10.516h81.72a5.258 5.258 0 0 1 0 10.516z" data-original="#d3dde6"></path><path fill="#FBBD80" fill-rule="evenodd" d="M280.136 371.932v-94.56a12.585 12.585 0 1 1 25.17 0v46.345a12.586 12.586 0 1 1 25.171 0v11.2a12.585 12.585 0 1 1 25.17 0v10.034a12.586 12.586 0 0 1 25.171 0v33.107c-5.584 11.225-11.139 22.988-16.695 34.213v33.391a2.274 2.274 0 0 1-2.268 2.267h-74.718a2.25 2.25 0 0 1-2.239-2.267v-33.395l-45.182-45.182a12.577 12.577 0 1 1 17.772-17.8z" data-original="#fbbd80" class=""></path><path fill="#685E68" fill-rule="evenodd" d="M284.9 412.267h79.225v33.419a2.288 2.288 0 0 1-2.268 2.239h-74.72a2.25 2.25 0 0 1-2.239-2.267z" data-original="#685e68" class=""></path><path fill="#4B6E7D" fill-rule="evenodd" d="M192.181 160.193h83.675a2.275 2.275 0 0 1 2.268 2.268v56.69a2.242 2.242 0 0 1-1.73 2.183l-41.837 10.374a2.306 2.306 0 0 1-1.077 0l-41.838-10.374a2.242 2.242 0 0 1-1.729-2.183v-56.69a2.275 2.275 0 0 1 2.268-2.268z" data-original="#4b6e7d"></path><path fill="#3D5966" fill-rule="evenodd" d="m234.755 137.29 62.332 21.91a2.259 2.259 0 0 1 1.5 2.126 2.206 2.206 0 0 1-1.5 2.126l-62.332 21.939a2.194 2.194 0 0 1-1.474 0l-62.331-21.938a2.206 2.206 0 0 1-1.5-2.126 2.258 2.258 0 0 1 1.5-2.126l62.331-21.911a1.9 1.9 0 0 1 1.474 0z" data-original="#3d5966"></path><path fill="#FFBB33" d="M232.658 166.4a5.24 5.24 0 1 1 2.721-10.12l26.361 7.059a5.232 5.232 0 0 1 3.883 5.073v32.258a5.244 5.244 0 1 1-10.488 0v-28.26z" data-original="#ffbb33"></path><g fill-rule="evenodd"><path fill="#3D5966" d="M196.4 74.591h75.228v8.56a8.6 8.6 0 0 1-8.56 8.589h-58.104a8.6 8.6 0 0 1-8.56-8.589z" data-original="#3d5966"></path><path fill="#5E555E" d="M292.1 412.267h-7.2v33.391a2.25 2.25 0 0 0 2.239 2.267h7.2a2.25 2.25 0 0 1-2.239-2.267z" data-original="#5e555e"></path><path fill="#E2AA73" d="M284.9 412.267h7.2l-8.447-8.447-11.367-11.366-25.369-25.369a12.608 12.608 0 0 1 0-17.8 12.153 12.153 0 0 1 5.3-3.146 12.577 12.577 0 0 0-12.5 20.947l25.4 25.369 11.338 11.366zM280.136 371.932l7.2 7.2v-101.76a12.689 12.689 0 0 1 8.985-12.075 12.632 12.632 0 0 0-16.185 12.075z" data-original="#e2aa73"></path><path fill="#D3DDE6" d="M153.234 370.571V97.324a33.134 33.134 0 0 1 8.05-21.656 21.945 21.945 0 0 0-18.736 21.656v273.247a21.945 21.945 0 0 0 18.736 21.656 33.024 33.024 0 0 1-8.05-21.656z" data-original="#d3dde6"></path><path fill="#37505C" d="M142.548 370.571V97.324a21.945 21.945 0 0 1 18.736-21.656A33.145 33.145 0 0 1 186.455 64.1h-22.024a33.31 33.31 0 0 0-33.249 33.221v273.25a33.316 33.316 0 0 0 33.249 33.249h22.024a33.169 33.169 0 0 1-25.171-11.593 21.945 21.945 0 0 1-18.736-21.656z" data-original="#37505c"></path></g></g></svg>